<?xml version="1.0" encoding="UTF-8"?>
<svg version="1.1" xmlns="http://www.w3.org/2000/svg" width="841" height="737">
<path d="M0 0 C60.88510015 4.39767847 125.0996678 30.12375417 173 68 C174.13435621 68.86987422 175.26983402 69.73828718 176.40625 70.60546875 C183.30077365 75.89873834 189.85005493 81.43575389 196.1953125 87.375 C198.8116027 89.82367272 201.45781557 92.2320121 204.125 94.625 C204.92808594 95.34816406 205.73117187 96.07132812 206.55859375 96.81640625 C208.23068378 98.31192357 209.9108055 99.79849565 211.59765625 101.27734375 C216.10842538 105.25743416 220.30593578 109.26763531 224.1796875 113.87109375 C226.25573771 116.29909238 228.439328 118.60775637 230.625 120.9375 C248.32245987 140.42609251 262.40387298 162.98097593 275 186 C275.47034668 186.85029785 275.94069336 187.7005957 276.42529297 188.57666016 C302.08132466 235.15072666 318.0586888 289.07501938 318.203125 342.38671875 C318.20595238 343.10575693 318.20877975 343.82479511 318.21169281 344.56562233 C318.22658056 348.38107272 318.23587211 352.19648641 318.24023438 356.01196289 C318.24459103 359.1058347 318.25838786 362.19942324 318.28125 365.29321289 C318.41711735 384.07760837 318.00212688 402.39794918 315 421 C314.8840448 421.72498688 314.7680896 422.44997375 314.64862061 423.19692993 C313.97904934 427.2610299 313.1833697 431.28720085 312.3125 435.3125 C312.05686279 436.51068359 311.80122559 437.70886719 311.5378418 438.94335938 C298.12509626 500.06230238 270.42109575 558.84846694 229 606 C228.20299683 606.91857788 228.20299683 606.91857788 227.38989258 607.85571289 C223.20136955 612.67489254 218.92075962 617.39649204 214.5625 622.0625 C213.94568359 622.73087891 213.32886719 623.39925781 212.69335938 624.08789062 C208.3754443 628.71133975 203.82475994 632.91234753 199 637 C197.95559185 637.9008825 196.91131059 638.80191214 195.8671875 639.703125 C188.0670813 646.34237989 180.13259075 652.77215936 172 659 C171.43120117 659.43779785 170.86240234 659.8755957 170.27636719 660.32666016 C153.5736726 673.1118481 135.60621217 684.2143958 117 694 C116.17097168 694.43908691 115.34194336 694.87817383 114.48779297 695.33056641 C62.21416536 722.82811376 3.78068591 737.33717406 -55.1875 737.125 C-56.39147934 737.12217514 -56.39147934 737.12217514 -57.61978149 737.11929321 C-140.28253684 736.89316192 -226.31457542 715.510426 -292 663 C-293.11981441 662.1311611 -294.24098762 661.26407158 -295.36328125 660.3984375 C-306.1270629 652.06738296 -316.52646227 643.34070854 -326.59765625 634.18359375 C-328.24331681 632.68778196 -329.89742339 631.20122468 -331.55859375 629.72265625 C-339.57883486 622.58134567 -347.02675943 615.16444673 -354 607 C-354.91763167 605.93460541 -355.83563021 604.86952675 -356.75390625 603.8046875 C-359.35028902 600.79087849 -361.93434007 597.76676156 -364.51416016 594.73876953 C-365.86097845 593.16268673 -367.21707596 591.59454506 -368.57421875 590.02734375 C-380.38455561 576.20107177 -390.11687094 561.01371172 -399.50097656 545.47363281 C-400.8476891 543.25133779 -402.21328431 541.04225516 -403.5859375 538.8359375 C-416.48380191 517.85299896 -426.05848478 495.25901874 -434 472 C-434.36464355 470.93507324 -434.72928711 469.87014648 -435.10498047 468.77294922 C-443.34068499 444.46848666 -448.76553969 420.11001474 -452.80078125 394.8125 C-452.90778854 394.14253494 -453.01479584 393.47256989 -453.12504578 392.78230286 C-454.14988709 386.24760377 -455.05816957 379.74487336 -455.31640625 373.12890625 C-455.3793689 371.5363501 -455.3793689 371.5363501 -455.44360352 369.91162109 C-455.48283936 368.80641113 -455.5220752 367.70120117 -455.5625 366.5625 C-455.6049585 365.42119629 -455.64741699 364.27989258 -455.69116211 363.10400391 C-456.00746285 354.06556713 -456.11334805 345.04265542 -456 336 C-456.9597876 336.33040283 -456.9597876 336.33040283 -457.93896484 336.66748047 C-471.58302276 341.34207843 -485.2787447 345.7868883 -499.10528564 349.88897705 C-500.61405936 350.33669582 -502.12216408 350.78667552 -503.62957764 351.23895264 C-505.7587537 351.87635754 -507.89052046 352.50414948 -510.0234375 353.12890625 C-511.24981934 353.49056885 -512.47620117 353.85223145 -513.73974609 354.22485352 C-516.65253719 354.91738847 -519.02744507 355.16842368 -522 355 C-522 350.91123974 -520.42364301 349.67965752 -517.875 346.5 C-516.95115838 345.33097856 -516.02940588 344.16030414 -515.109375 342.98828125 C-514.60857422 342.35100098 -514.10777344 341.7137207 -513.59179688 341.05712891 C-510.69945524 337.31926532 -507.91759007 333.50011953 -505.125 329.6875 C-500.78052639 323.768228 -496.41614989 317.86600815 -492 312 C-487.7091677 306.30028026 -483.46976107 300.5649994 -479.25 294.8125 C-474.23844472 287.98564803 -469.14660459 281.22555688 -464 274.5 C-458.32776472 267.08711835 -452.73852884 259.62072115 -447.21875 252.09375 C-442.39439448 245.51906141 -437.5049521 238.99500067 -432.60302734 232.47802734 C-428.386467 226.86576045 -424.2137001 221.22322741 -420.0625 215.5625 C-415.11396342 208.818576 -410.08308931 202.14303402 -405 195.5 C-396.61285287 184.53836866 -388.2531515 173.53285346 -380.35546875 162.2109375 C-378.37039637 159.50491844 -376.36979691 157.34581111 -374 155 C-372.67056563 153.17272305 -371.38298214 151.31468346 -370.125 149.4375 C-346.03602258 114.01801129 -346.03602258 114.01801129 -340 111 C-336.52582338 132.08763121 -333.30129957 153.20234361 -330.24293017 174.35393834 C-329.65479428 178.41733698 -329.06367381 182.48030163 -328.47291565 186.5433197 C-327.34421653 194.30904831 -326.21791138 202.07512194 -325.09264475 209.84134859 C-323.02947725 224.08025272 -320.9622727 238.31857151 -318.89519703 252.55690873 C-318.25764038 256.94850223 -317.62019739 261.34011216 -316.98302841 265.73176193 C-314.09557026 285.63258899 -311.19689895 305.53156355 -308.24960518 325.42363548 C-307.79718019 328.47743404 -307.34548465 331.53133957 -306.89402771 334.58528137 C-305.72537193 342.48817873 -304.55497877 350.39076575 -303.36987209 358.29121494 C-302.91769761 361.31357928 -302.4704064 364.33665015 -302.02458 367.35995674 C-301.73053204 369.34243999 -301.42992409 371.32394687 -301.12904358 373.30540466 C-300.96206467 374.44308792 -300.79508575 375.58077118 -300.62304688 376.75292969 C-300.47702026 377.72864929 -300.33099365 378.7043689 -300.18054199 379.70965576 C-300 382 -300 382 -301 384 C-311.10590626 379.40090494 -320.26554903 373.53844938 -329.58398438 367.54589844 C-333.36947423 365.12373577 -337.18422783 362.74906241 -341 360.375 C-344.35790499 358.28465934 -347.70845421 356.19436386 -351 354 C-351.62993589 380.91602973 -349.312938 406.80898398 -343 433 C-342.78504883 433.90878906 -342.57009766 434.81757813 -342.34863281 435.75390625 C-329.36163443 489.72080534 -300.13534992 535.95869302 -262.625 576.0625 C-261.95895752 576.77704346 -261.29291504 577.49158691 -260.60668945 578.2277832 C-256.92500708 582.1269333 -253.15925533 585.61987278 -249 589 C-248.34386719 589.66 -247.68773437 590.32 -247.01171875 591 C-199.08605977 638.64648038 -119.07798594 667.64541318 -52.05078125 668.23828125 C-51.12763123 668.24802979 -50.2044812 668.25777832 -49.25335693 668.26782227 C-27.4842477 668.45013166 -6.46430014 667.9060757 15 664 C16.56065186 663.71914551 16.56065186 663.71914551 18.15283203 663.43261719 C47.48491573 657.97438917 76.14665606 647.91089462 103 635 C103.75249023 634.64276855 104.50498047 634.28553711 105.28027344 633.91748047 C125.87363309 624.02424043 145.5211061 610.6795398 163 596 C163.55816406 595.53513184 164.11632812 595.07026367 164.69140625 594.59130859 C168.48976227 591.42707409 172.24975075 588.22104175 176 585 C176.69222656 584.42121094 177.38445313 583.84242188 178.09765625 583.24609375 C187.85787404 574.97788377 196.959064 565.72012103 204.875 555.6796875 C207.09268768 552.88311811 209.4162975 550.20021347 211.75 547.5 C221.65900772 535.63079917 230.28920251 522.38393772 238 509 C238.43634766 508.24477051 238.87269531 507.48954102 239.32226562 506.71142578 C283.60575463 429.39509061 295.42399126 336.68179124 272.94970703 250.44384766 C261.51039063 208.96235737 242.39865337 170.65010215 217 136 C216.26652344 134.96746094 215.53304687 133.93492187 214.77734375 132.87109375 C214.08769531 131.90300781 213.39804687 130.93492187 212.6875 129.9375 C212.09324219 129.10089844 211.49898437 128.26429688 210.88671875 127.40234375 C208.77410975 124.71237577 206.42527941 122.41075678 204 120 C202.67919303 118.45334512 201.35943092 116.90569188 200.05615234 115.34423828 C193.69059318 107.75093151 186.86461069 100.64074063 179.875 93.625 C178.51677124 92.25323608 178.51677124 92.25323608 177.13110352 90.85375977 C156.32160047 70.13452841 131.56867231 54.15263155 106 40 C105.21641113 39.56155762 104.43282227 39.12311523 103.62548828 38.67138672 C75.66512653 23.09389901 45.88016856 13.05948173 14.83740234 5.68115234 C9.88230284 4.49162149 4.94167492 3.24393327 0 2 C0 1.34 0 0.68 0 0 Z " fill="#000000" transform="translate(523,0)"/>
<path d="M0 0 C2.56371317 0.97803324 4.9258401 1.97619353 7.375 3.17578125 C8.39199478 3.65735184 8.39199478 3.65735184 9.42953491 4.14865112 C11.6252056 5.19213973 13.81254234 6.25191718 16 7.3125 C17.53429365 8.04611214 19.06896577 8.77893326 20.60400391 9.51098633 C30.20498753 14.10374355 39.73796287 18.82788611 49.23364258 23.63452148 C57.80830446 27.95647764 66.50608645 31.99009203 75.22802734 36.00463867 C83.69887432 39.91055654 92.11059898 43.923364 100.5 48 C109.74816716 52.4928651 119.03338513 56.89121127 128.375 61.1875 C140.57797 66.80325774 152.63889056 72.68886862 164.69754028 78.60684204 C176.82951155 84.55414711 189.04331584 90.26834857 201.37054443 95.79821777 C211.52744815 100.3590807 221.51778031 105.1728483 231.44604492 110.21704102 C239.42755491 114.2579413 247.49896992 118.07440093 255.625 121.8125 C263.3571728 125.37148474 271.07505015 128.94023851 278.6875 132.75 C279.33477051 133.07331299 279.98204102 133.39662598 280.64892578 133.72973633 C284.86264114 135.86264114 284.86264114 135.86264114 286 137 C286.12416454 138.57178484 286.17804925 140.14914038 286.20532227 141.72558594 C286.22524231 142.77181122 286.24516235 143.8180365 286.26568604 144.89596558 C286.28242371 146.08014069 286.29916138 147.2643158 286.31640625 148.484375 C286.33741394 149.76563263 286.35842163 151.04689026 286.38006592 152.36697388 C286.45065212 156.82786536 286.50724278 161.28889615 286.5625 165.75 C286.57239834 166.5246183 286.58229668 167.2992366 286.59249496 168.09732819 C287.05084927 204.21773503 287.19607154 240.34325705 287.27481747 276.46628571 C287.27856694 278.17759707 287.28232855 279.88890841 287.28610229 281.60021973 C287.28889237 282.87066942 287.28889237 282.87066942 287.29173881 284.16678476 C287.30592574 290.17418656 287.33044277 296.1814945 287.35916138 302.18884277 C287.39446383 309.62145799 287.41519929 317.05394774 287.41792715 324.48664892 C287.41970994 328.35338625 287.42805737 332.21982937 287.45333099 336.08649063 C287.47653057 339.67647489 287.48092295 343.26598616 287.4706887 346.85602617 C287.46999317 348.78486639 287.48906588 350.7136823 287.50879765 352.64242172 C287.44483993 363.24868781 287.44483993 363.24868781 283 368 C280.07421875 369.984375 280.07421875 369.984375 276.6875 371.75 C275.41425284 372.43957197 274.14348965 373.13374633 272.875 373.83203125 C272.22660156 374.18861816 271.57820313 374.54520508 270.91015625 374.91259766 C267.91312758 376.61872824 265.04468763 378.51002898 262.1875 380.4375 C261.58719971 380.84226562 260.98689941 381.24703125 260.3684082 381.6640625 C258.24241133 383.10472797 256.12109533 384.55212766 254 386 C252.07699151 387.30884149 250.1538009 388.61741542 248.23046875 389.92578125 C245.02204858 392.10860814 241.81379943 394.29168112 238.60644531 396.47607422 C229.32754352 402.79099796 219.99915415 409.02865705 210.64990234 415.23876953 C206.01309117 418.32057861 201.38188124 421.41078845 196.75 424.5 C190.53190675 428.64710086 184.31281292 432.79266322 178.08943176 436.93182373 C164.543156 445.94196998 151.00886038 454.9662033 137.5625 464.125 C136.55582275 464.80594727 135.54914551 465.48689453 134.51196289 466.18847656 C129.88361633 469.32339974 125.29557319 472.49314346 120.77734375 475.78515625 C119.96515381 476.36313965 119.15296387 476.94112305 118.31616211 477.53662109 C116.83309965 478.59369586 115.3646673 479.67179696 113.91625977 480.77587891 C110.24436198 483.35911902 108.66419609 484.08426675 104.05126953 483.49902344 C97.7062743 481.88234048 92.04107616 478.82006972 86.2421875 475.84765625 C85.01025461 475.22573014 83.77783151 474.60477419 82.54495239 473.98472595 C79.30419415 472.35203123 76.06942966 470.70781487 72.83605957 469.06054688 C67.71614587 466.45485659 62.58655769 463.86823922 57.45828629 461.27905083 C55.70996473 460.39459138 53.96391007 459.50565513 52.21798706 458.61647034 C44.95739794 454.93410513 37.6420595 451.38565487 30.28955078 447.89038086 C17.64182295 441.87088374 5.11646972 435.61551257 -7.40226746 429.33309746 C-10.57490933 427.74165769 -13.74893965 426.15299182 -16.92285156 424.56408691 C-25.6269681 420.20609523 -34.32903907 415.8440254 -43.03106689 411.48186493 C-51.02834724 407.47303549 -59.02609905 403.46515343 -67.02549362 399.46054411 C-70.15699426 397.8927494 -73.28808018 396.32413975 -76.41809082 394.75337219 C-90.2002366 387.83824043 -104.01788244 381.01879594 -117.95057678 374.41166687 C-126.17449077 370.50360233 -134.30290029 366.40223371 -142.4375 362.3125 C-144.02789603 361.51477703 -145.61839102 360.71725131 -147.20898438 359.91992188 C-149.54996243 358.7463498 -151.89070883 357.57233168 -154.2305603 356.39651489 C-158.02074881 354.49191318 -161.81387059 352.59366016 -165.61376953 350.70849609 C-166.34797623 350.34362595 -167.08218292 349.9787558 -167.83863831 349.60282898 C-169.22235425 348.91560631 -170.60686005 348.22997081 -171.99229431 347.54621887 C-174.78944898 346.15567573 -177.39590811 344.73606126 -180 343 C-180.39872742 340.11709595 -180.39872742 340.11709595 -180.43237305 336.33056641 C-180.44255054 335.63247832 -180.45272802 334.93439024 -180.46321392 334.21514797 C-180.49384502 331.84387552 -180.50271883 329.47300921 -180.51171875 327.1015625 C-180.52891908 325.37990642 -180.54731515 323.65826195 -180.56680298 321.93663025 C-180.61625382 317.17159702 -180.64566652 312.40662469 -180.67056656 307.64140701 C-180.68747405 304.62962254 -180.70913433 301.61791142 -180.73251343 298.60617065 C-180.82807282 286.28204879 -180.89621516 273.95795588 -180.94815731 261.63357639 C-180.9860237 252.74551009 -181.03398021 243.85754315 -181.08573925 234.96955061 C-181.16870876 220.65855571 -181.23228256 206.34760302 -181.2716074 192.03641891 C-181.2757548 190.53614041 -181.27991503 189.03586193 -181.28408813 187.5355835 C-181.28613949 186.79477563 -181.28819085 186.05396776 -181.29030436 185.29071116 C-181.30573415 180.05103483 -181.33083463 174.81145618 -181.35971069 169.57183838 C-181.39496785 163.12552595 -181.41562276 156.67935808 -181.41812778 150.23294669 C-181.41978268 146.90448228 -181.43007107 143.57663798 -181.45329666 140.24821281 C-181.47749316 136.60605715 -181.47686507 132.96472026 -181.4699707 129.32250977 C-181.48278422 128.25569788 -181.49559774 127.18888599 -181.50879955 126.08974648 C-181.46635341 120.07577686 -181.05339486 116.55545099 -177 112 C-174.84561525 110.48824827 -172.84204876 109.23684698 -170.546875 107.99609375 C-164.21237779 104.37919588 -158.11772355 100.50029665 -152.078125 96.41015625 C-151.20997162 95.82294296 -150.34181824 95.23572968 -149.44735718 94.63072205 C-147.64282246 93.40762935 -145.83923924 92.18313178 -144.03656006 90.95730591 C-140.22185628 88.36338254 -136.40120493 85.77827866 -132.5809021 83.19261169 C-130.67730909 81.90411426 -128.77400602 80.61518837 -126.8710022 79.32582092 C-116.44343136 72.26200308 -105.9611645 65.2820397 -95.47167969 58.31054688 C-91.44858015 55.63473561 -87.43151354 52.94990592 -83.4140625 50.265625 C-81.17471632 48.77009116 -78.93530021 47.2746621 -76.69586182 45.77926636 C-75.25822983 44.81897358 -73.82084233 43.85831466 -72.38372803 42.89724731 C-65.83075 38.51542501 -59.27160365 34.14275988 -52.65625 29.85546875 C-51.79837891 29.29883545 -50.94050781 28.74220215 -50.05664062 28.16870117 C-48 27 -48 27 -46 27 C-45.74508789 26.39043457 -45.49017578 25.78086914 -45.22753906 25.15283203 C-43.83553875 22.71157134 -42.7717384 21.94141043 -40.359375 20.5546875 C-39.62477051 20.12220703 -38.89016602 19.68972656 -38.13330078 19.24414062 C-37.34681152 18.79232422 -36.56032227 18.34050781 -35.75 17.875 C-22.21278901 10.00842655 -22.21278901 10.00842655 -10.1171875 0.15625 C-6.79920107 -1.65578687 -3.55779866 -0.75344631 0 0 Z M-9.875 30.5 C-18.40300402 36.93860678 -27.20948473 42.84752999 -36.20263672 48.6171875 C-37.1876416 49.26042969 -38.17264648 49.90367187 -39.1875 50.56640625 C-40.50814453 51.41634155 -40.50814453 51.41634155 -41.85546875 52.28344727 C-44.07494893 54.05999157 -44.9740943 55.38043002 -46 58 C-35.87092255 63.43317816 -25.70524477 68.68748482 -15.28042603 73.53131104 C-9.77580737 76.10923653 -4.3931803 78.8622743 0.96484375 81.73046875 C9.45437911 86.23435778 18.03872608 90.5021725 26.69625854 94.67208862 C41.50298651 101.80819935 56.24253914 109.07428438 70.9375 116.4375 C71.80389099 116.87146088 72.67028198 117.30542175 73.56292725 117.75253296 C79.71008191 120.83210654 85.8552635 123.91560489 92 127 C99.06120149 130.54426033 106.12320441 134.08691007 113.1875 137.625 C114.02794861 138.04596388 114.86839722 138.46692776 115.73431396 138.90064812 C127.21510238 144.6474788 138.73573282 150.29118777 150.33984375 155.78564453 C156.93959343 158.91069937 163.47336157 162.16282352 170 165.4375 C171.17304687 166.02208984 172.34609375 166.60667969 173.5546875 167.20898438 C174.69164062 167.77810547 175.82859375 168.34722656 177 168.93359375 C178.05574219 169.46065918 179.11148438 169.98772461 180.19921875 170.53076172 C182.50976526 171.74283188 184.63843818 173.04025378 186.8125 174.47265625 C190.87483672 176.4191926 193.82758968 176.43169018 198 175 C201.12244005 173.37099591 203.91144504 171.39001926 206.75 169.3125 C207.55985352 168.73886719 208.36970703 168.16523438 209.20410156 167.57421875 C210.92291995 166.35581585 212.63735209 165.13120485 214.34765625 163.90087891 C217.91840191 161.3418007 221.52446132 158.83481885 225.12988281 156.32495117 C231.44886797 151.92368262 237.74049134 147.48542332 244 143 C242.52003527 138.97045722 240.52445546 137.92989405 236.70703125 136.15234375 C235.61471191 135.63583252 234.52239258 135.11932129 233.39697266 134.5871582 C232.21409668 134.042771 231.0312207 133.49838379 229.8125 132.9375 C228.57281184 132.35567286 227.33372348 131.77256616 226.09521484 131.18823242 C223.58106514 130.00388344 221.06414274 128.82579431 218.54443359 127.65332031 C213.72286062 125.4042714 208.92299776 123.11129063 204.125 120.8125 C203.22225342 120.38219482 202.31950684 119.95188965 201.3894043 119.50854492 C195.40929045 116.65314793 189.45001232 113.75726289 183.5 110.83984375 C167.85634404 103.17562619 152.18302447 95.65017604 136.28414917 88.5289917 C124.87601335 83.40939531 113.68365275 77.92426305 102.52600098 72.2819519 C92.00596622 66.96384826 81.41855847 61.87237288 70.70166016 56.95922852 C61.09042489 52.54052999 51.57140711 47.9464592 42.0625 43.3125 C40.56174791 42.58263676 39.06093481 41.85289897 37.56005859 41.12329102 C31.13739223 37.99933259 24.72058121 34.8649881 18.3203125 31.6953125 C16.44281125 30.7758315 14.56521633 29.8565417 12.6875 28.9375 C11.87095947 28.52604736 11.05441895 28.11459473 10.21313477 27.69067383 C1.56325041 23.48466406 -2.50502183 24.74719326 -9.875 30.5 Z M-93.6875 87.1875 C-95.18889018 88.28941641 -96.69154394 89.38961279 -98.1953125 90.48828125 C-98.97680664 91.06400879 -99.75830078 91.63973633 -100.56347656 92.23291016 C-105.42722723 95.76034777 -110.4265149 99.09247247 -115.40307617 102.45776367 C-120.37545048 105.83811765 -125.22252454 109.34926463 -130 113 C-129.318238 116.0775846 -129.318238 116.0775846 -127.06039429 117.27380371 C-126.2082132 117.69585083 -125.3560321 118.11789795 -124.47802734 118.55273438 C-123.51126068 119.03754272 -122.54449402 119.52235107 -121.5484314 120.02185059 C-120.48830841 120.54057739 -119.42818542 121.0593042 -118.3359375 121.59375 C-117.2377066 122.14051392 -116.13947571 122.68727783 -115.00796509 123.25061035 C-112.06441146 124.71348778 -109.11665546 126.16742303 -106.16674805 127.61743164 C-103.25953282 129.04945004 -100.3587005 130.49428509 -97.45703125 131.9375 C-85.64755699 137.79917092 -73.79309551 143.55979729 -61.88923645 149.22712708 C-54.0661328 152.9551247 -46.30220704 156.78983659 -38.5625 160.6875 C-37.35752319 161.29251953 -36.15244436 161.89733593 -34.94726562 162.50195312 C-32.53079817 163.71459461 -30.11460867 164.92778654 -27.69873047 166.14160156 C-27.09422058 166.44529663 -26.48971069 166.7489917 -25.86688232 167.06188965 C-24.60102587 167.69798386 -23.33528238 168.33430292 -22.06964111 168.9708252 C-12.69532626 173.68342706 -3.2834323 178.31048087 6.16659546 182.8692627 C40.04287495 199.22261 40.04287495 199.22261 54.9375 207.4375 C64.53008143 212.71805733 74.20367695 217.83760657 83.92312622 222.88040161 C85.58932889 223.74657785 87.25364668 224.61639028 88.91598511 225.48995972 C91.27085379 226.72621475 93.63241995 227.9486514 95.99609375 229.16796875 C96.69947876 229.54032654 97.40286377 229.91268433 98.12756348 230.29632568 C102.41258455 232.48366239 106.11538157 233.71192222 111 234 C115.57457572 232.27725901 119.0784064 229.53727488 122.875 226.5 C128.41458253 222.13748787 134.12043174 218.09455101 139.95068359 214.1315918 C146.71392329 209.53176902 153.36356965 204.78030374 160 200 C158.98957981 197.28922197 158.2692277 196.16460981 155.76708984 194.63476562 C154.84105957 194.22935547 153.9150293 193.82394531 152.9609375 193.40625 C151.91784424 192.93952881 150.87475098 192.47280762 149.80004883 191.99194336 C148.66978271 191.49960205 147.5395166 191.00726074 146.375 190.5 C143.98942596 189.43163833 141.60534095 188.35994637 139.22265625 187.28515625 C138.61626816 187.01264542 138.00988007 186.74013458 137.38511658 186.45936584 C131.44557476 183.77815998 125.62426523 180.88309033 119.8125 177.9375 C109.24807341 172.60121442 98.5995821 167.46365207 87.90966797 162.38427734 C82.97650505 160.03732032 78.0503259 157.67585088 73.125 155.3125 C72.105271 154.82322021 71.08554199 154.33394043 70.03491211 153.82983398 C60.51234202 149.25541599 51.00736345 144.64496142 41.50305176 140.03277588 C27.68254061 133.32631334 13.84777087 126.6500344 0 120 C-1.3914624 119.33121826 -1.3914624 119.33121826 -2.81103516 118.64892578 C-12.42543733 114.02978358 -22.05467466 109.4425717 -31.69921875 104.88671875 C-32.46621597 104.52439651 -33.2332132 104.16207428 -34.02345276 103.78877258 C-37.95642791 101.93158749 -41.89054128 100.07686256 -45.82641602 98.22583008 C-52.49397475 95.08806485 -59.15428246 91.94268759 -65.765625 88.6875 C-66.7335498 88.2138501 -67.70147461 87.7402002 -68.69873047 87.25219727 C-70.41622929 86.40848889 -72.12925784 85.55558309 -73.83642578 84.69116211 C-82.25720871 80.56850618 -86.40999064 81.65696876 -93.6875 87.1875 Z M-153 157 C-153.18421744 166.22886423 -153.34812434 175.45805189 -153.5 184.6875 C-153.51187725 185.40869522 -153.5237545 186.12989044 -153.53599167 186.87294006 C-154.03910007 217.83152494 -154.08572087 248.7878748 -154.0625 279.75 C-154.06164398 280.8995303 -154.06078796 282.04906059 -154.05990601 283.23342514 C-154.04850279 297.4889657 -154.02840797 311.74448353 -154 326 C-150.79948809 327.77038023 -147.59728281 329.53767581 -144.39477539 331.30444336 C-143.49379372 331.80287498 -142.59281204 332.30130661 -141.66452789 332.81484222 C-135.34759766 336.29711955 -128.99123107 339.54719151 -122.4375 342.5625 C-115.36379333 345.88038261 -108.38607777 349.30826062 -101.5 353 C-93.64833028 357.2036812 -85.67398445 361.09966312 -77.6171875 364.89453125 C-72.2705648 367.41652309 -66.96047662 370.00316603 -61.67651367 372.65380859 C-60.24811048 373.36918644 -58.81969939 374.0845485 -57.39128113 374.79989624 C-56.66273611 375.16496655 -55.93419109 375.53003685 -55.18356895 375.90616989 C-51.73277448 377.63479994 -48.28040149 379.36026967 -44.828125 381.0859375 C-43.42544739 381.78725546 -42.02277826 382.48859038 -40.62011719 383.18994141 C-39.90835327 383.54582336 -39.19658936 383.90170532 -38.46325684 384.26837158 C-23.43546549 391.78226725 -8.40767415 399.29616292 6.62011719 406.81005859 C7.67061186 407.33530168 7.67061186 407.33530168 8.74232864 407.87115574 C10.11979703 408.5598956 11.49725641 409.24865346 12.87470627 409.93743038 C16.38299032 411.69167613 19.8914574 413.44555443 23.40020752 415.1988678 C24.1199173 415.55856407 24.83962708 415.91826035 25.58114624 416.28885651 C26.94249664 416.96922178 28.30390201 417.64947707 29.66537476 418.32959747 C33.33967814 420.16607444 37.00854241 422.01283369 40.671875 423.87109375 C51.11199502 429.15583417 61.62196033 434.19740414 72.32421875 438.9296875 C77.56558239 441.25042495 82.78162917 443.62801326 88 446 C88 389.9 88 333.8 88 276 C76.06069444 269.43338194 64.23551607 262.94481718 52 257 C51.37380013 256.69511784 50.74760025 256.39023567 50.10242462 256.07611465 C46.27732825 254.2157608 42.44680008 252.36681846 38.61463547 250.52107811 C26.41342436 244.64012048 14.25770367 238.67344723 2.1484375 232.60546875 C1.45692848 232.25899418 0.76541946 231.91251961 0.05295563 231.55554581 C-4.84117066 229.10246447 -9.73329724 226.64540969 -14.625 224.1875 C-20.24086609 221.36585083 -25.85757722 218.54590215 -31.4765625 215.73046875 C-32.48942196 215.2228985 -32.48942196 215.2228985 -33.52274323 214.70507431 C-43.08786981 209.9155144 -52.69720602 205.23092205 -62.36000061 200.64083862 C-69.46409715 197.26567766 -76.511906 193.79409002 -83.53155518 190.24713135 C-92.19253269 185.87134929 -100.86154979 181.51145499 -109.53272057 177.1559124 C-112.82997401 175.49943002 -116.1260252 173.84063411 -119.41967773 172.17700195 C-122.65797552 170.54146378 -125.89923695 168.91194096 -129.14256477 167.28640175 C-130.94635457 166.3804502 -132.7470816 165.4684086 -134.54771423 164.55619812 C-140.61090574 161.52398288 -146.50211127 158.94338631 -153 157 Z M243.75 194.875 C237.23033666 200.04275341 230.27338521 204.00098009 223 208 C215.23677973 212.09548982 215.23677973 212.09548982 210.3203125 218.91015625 C208.39218511 226.8207611 208.78209064 234.9260338 209 243 C209.0299707 244.1540332 209.05994141 245.30806641 209.09082031 246.49707031 C209.19816138 250.45665168 209.31497257 254.4158664 209.4375 258.375 C209.47657471 259.65858398 209.51564941 260.94216797 209.5559082 262.26464844 C209.79194894 269.21318225 210.17889913 276.09469281 211 283 C216.3528364 281.17149877 220.45065624 279.25412595 225 275.8125 C231.68648681 270.85876849 238.56646363 266.22525519 245.5 261.625 C246.53898437 260.93510986 247.57796875 260.24521973 248.6484375 259.53442383 C249.64101563 258.87595459 250.63359375 258.21748535 251.65625 257.5390625 C252.58953125 256.91805664 253.5228125 256.29705078 254.484375 255.65722656 C255.98430354 254.6691137 257.49216172 253.69263738 259.015625 252.74121094 C262.39343954 250.6441778 262.39343954 250.6441778 264 247 C264.06100033 244.95963904 264.05839217 242.91716403 264.02172852 240.8762207 C264.00163223 239.61513992 263.98153595 238.35405914 263.96083069 237.05476379 C263.93363438 235.67843406 263.90632354 234.30210659 263.87890625 232.92578125 C263.85459998 231.51760119 263.83075667 230.10941308 263.80735779 228.70121765 C263.74456724 224.99725147 263.67548645 221.29342824 263.60510254 217.58959961 C263.5343736 213.80914818 263.46958394 210.0285955 263.40429688 206.24804688 C263.27534939 198.83191926 263.1397576 191.41593261 263 184 C255.77881567 184 249.17421335 190.56698126 243.75 194.875 Z " fill="#000000" transform="translate(442,105)"/>
<path d="M0 0 C1.8515625 2.00390625 1.8515625 2.00390625 3.625 4.5625 C4.29917969 5.53445313 4.97335937 6.50640625 5.66796875 7.5078125 C6.44733393 8.67052258 7.22448795 9.8347164 8 11 C8.70310303 12.04752441 8.70310303 12.04752441 9.42041016 13.11621094 C10.9365339 15.38326591 12.43977264 17.65825431 13.9375 19.9375 C14.42234863 20.67105713 14.90719727 21.40461426 15.40673828 22.16040039 C15.85903809 22.8589917 16.31133789 23.55758301 16.77734375 24.27734375 C17.18202881 24.89859131 17.58671387 25.51983887 18.00366211 26.15991211 C19.05056739 28.09339045 19.56136197 29.85307593 20 32 C15.65883413 31.3422476 12.0052117 29.75965131 8 28 C6.84797334 44.33409227 6.89410987 60.63590227 7 77 C9.97 78.32 12.94 79.64 16 81 C16.495 87.93 16.495 87.93 17 95 C-13.8 85.2 -13.8 85.2 -22 77 C-22.07271741 74.64686445 -22.08370868 72.29166332 -22.0625 69.9375 C-22.05347656 68.64714844 -22.04445313 67.35679687 -22.03515625 66.02734375 C-22.02355469 65.02832031 -22.01195312 64.02929688 -22 63 C-19.03 63.99 -16.06 64.98 -13 66 C-13 50.16 -13 34.32 -13 18 C-17.29 15.69 -21.58 13.38 -26 11 C-23.65053028 6.30106056 -21.09907867 5.07072342 -16.625 2.8125 C-15.95210938 2.45736328 -15.27921875 2.10222656 -14.5859375 1.73632812 C-5.4846195 -2.98453269 -5.4846195 -2.98453269 0 0 Z " fill="#000000" transform="translate(322,346)"/>
<path d="M0 0 C1.4128418 1.65136719 1.4128418 1.65136719 2.69921875 3.796875 C3.18229492 4.58521729 3.66537109 5.37355957 4.16308594 6.18579102 C4.66614258 7.03197998 5.16919922 7.87816895 5.6875 8.75 C6.74623951 10.48457586 7.80745529 12.21764259 8.87109375 13.94921875 C9.39558105 14.80563965 9.92006836 15.66206055 10.46044922 16.54443359 C13.2759288 21.03509227 16.36156321 25.32593461 19.453125 29.62890625 C21 32 21 32 21 34 C19.41531323 33.54636829 17.83230076 33.08688548 16.25 32.625 C15.36828125 32.36976563 14.4865625 32.11453125 13.578125 31.8515625 C11 31 11 31 7 29 C7 45.17 7 61.34 7 78 C10.3 79.32 13.6 80.64 17 82 C17 86.62 17 91.24 17 96 C9.47404025 94.62119821 2.92564924 91.32317781 -3.88378906 87.97753906 C-5.88696883 86.99412418 -7.89603164 86.02362057 -9.90625 85.0546875 C-19.7106879 80.2893121 -19.7106879 80.2893121 -22 78 C-22.1953125 74.9609375 -22.1953125 74.9609375 -22.125 71.375 C-22.10695313 70.18648438 -22.08890625 68.99796875 -22.0703125 67.7734375 C-22.04710937 66.85820312 -22.02390625 65.94296875 -22 65 C-18.7 65.99 -15.4 66.98 -12 68 C-12 51.83 -12 35.66 -12 19 C-16.29 17.02 -20.58 15.04 -25 13 C-24 9 -24 9 -22.11401367 7.61206055 C-21.30681885 7.20769775 -20.49962402 6.80333496 -19.66796875 6.38671875 C-18.78689453 5.94392578 -17.90582031 5.50113281 -16.99804688 5.04492188 C-16.07056641 4.59697266 -15.14308594 4.14902344 -14.1875 3.6875 C-13.27162109 3.22021484 -12.35574219 2.75292969 -11.41210938 2.27148438 C-3.52568078 -1.6171625 -3.52568078 -1.6171625 0 0 Z " fill="#000000" transform="translate(370,368)"/>
<path d="" fill="#000000" transform="translate(0,0)"/>
</svg>
